PathFileType	4	(X/Y/Z)	OpenSim_Sub11_EMGPreOp_Accel.trc
DataRate	CameraRate	NumFrames	NumMarkers	Units	OrigDataRate	OrigDataStartFrame	OrigNumFrames
100	100	42	8	m	100	736	5885
Frame#	Time	torso_imu_offset_imu	pelvis_imu_offset_imu	tibia_r_imu_offset_imu	femur_r_imu_offset_imu	tibia_l_imu_offset_imu	femur_l_imu_offset_imu	toes_r_imu_offset_imu	toes_l_imu_offset_imu
				X1	Y1	Z1	X2	Y2	Z2	X3	Y3	Z3	X4	Y4	Z4	X5	Y5	Z5	X6	Y6	Z6	X7	Y7	Z7	X8		Y8	Z8	

736	7.35000000	9.05128780	1.22091780	4.13410681	8.89091018	-0.09124698	3.75011255	7.90546891	6.94587207	2.80455383	11.27746942	-1.03176868	-1.69554349	9.72778251	0.13449664	0.52341143	9.81844505	1.15624687	-1.65628772	5.07200906	-2.52459922	12.95784867	5.68731908	0.38949568	8.03238076
737	7.36000000	9.02282147	1.08306930	4.21129442	9.13331788	-0.11870274	3.74385784	7.52852166	7.55787507	1.90750073	11.60819763	-0.68891385	-1.67296797	9.80457769	0.62642254	0.74239303	9.70676621	1.54532034	-1.60704959	3.89518754	-1.24427874	15.30770018	6.19473488	0.12586945	7.63244849
738	7.37000000	8.87586141	1.06809283	4.31126091	9.28232315	-0.22700353	3.80475743	7.40101407	8.35182689	1.03857896	11.85976956	0.06295292	-1.60570789	9.97792969	0.87439545	0.67397952	9.63955751	1.71430112	-1.60888677	2.96517908	-0.31492260	14.50923201	5.82350314	0.07806418	7.88409057
739	7.38000000	8.83584483	0.99923973	4.37472543	9.44889547	-0.28678236	3.86316183	7.41614822	8.53661891	1.16776090	11.76531817	0.96244816	-1.58100060	10.14314874	1.00665930	0.40771211	9.53716428	2.04918255	-1.76644096	1.47180976	-0.05703597	14.08208615	5.54479284	0.42981407	8.18206987
740	7.39000000	8.85490673	0.85992208	4.39866180	9.55273016	-0.24261417	3.88253340	7.32778479	7.90425321	1.82252496	11.87877735	2.00565752	-1.43583888	10.07876693	1.22337962	0.23141069	9.47668738	2.32617475	-2.00632044	-2.13011342	-3.16797143	10.25610548	5.54895175	0.49930360	8.02140100
741	7.40000000	8.96080318	0.66540830	4.40425485	9.56631967	-0.24591343	3.81059513	6.81974612	6.83543918	1.82116661	11.78050282	2.75752031	-1.10838227	9.86042326	1.50164806	0.17126997	9.25523589	2.69614392	-2.24967224	-0.55583290	-4.03967981	9.89333646	5.72268058	0.46400477	7.88029197
742	7.41000000	8.99872743	0.55891986	4.46513894	9.55267117	-0.29077594	3.76398380	6.23988743	5.95028758	1.71928252	11.15570281	3.37509237	-0.84425149	9.68979188	1.68159078	0.02318198	8.86509832	3.10266521	-2.34764610	0.48073168	-2.77999790	10.69685487	5.74453022	0.52967973	7.76521658
743	7.42000000	8.95960101	0.40820047	4.43642853	9.50764332	-0.29546309	3.72511721	5.95705002	5.48725194	1.83977173	10.53578872	3.67159651	-0.74101550	9.69564456	1.66047388	-0.13926032	8.50378159	3.36113057	-2.31695433	0.65093837	-2.58341734	10.23601482	5.76448299	0.48680843	7.74967066
744	7.43000000	8.88366884	0.44004634	4.40634261	9.42423789	-0.33363861	3.66743070	5.74973173	5.29151373	1.79870690	9.96398175	3.79358004	-0.80613183	9.82882562	1.41499061	-0.13018297	8.39645433	3.46853631	-2.26811657	0.36422647	-2.38747274	9.66803148	5.92200635	0.47303527	7.69927813
745	7.44000000	8.83554981	0.40483923	4.33652232	9.27026587	-0.33578828	3.55379896	5.66728721	5.33050659	1.75508114	9.38135643	3.67395862	-0.89449973	9.86675082	1.01947561	-0.06623364	8.55955628	3.34331796	-2.21215346	0.62376554	-2.58762692	9.07501314	5.68374543	0.37918431	7.87358373
746	7.45000000	8.88143683	0.39744910	4.26531130	9.17876141	-0.31369466	3.49168185	5.74644137	5.40057921	1.75359713	8.99104232	3.26910164	-0.96669689	9.81426347	0.72747373	-0.04163685	8.82511118	3.23254663	-2.14727321	1.17649016	-2.09692943	9.03326357	5.59907437	0.46458584	8.06199909
747	7.46000000	8.92423463	0.40126272	4.24079612	9.10998250	-0.31867832	3.44963027	5.84718001	5.39738760	1.70663830	8.59189983	2.35920502	-1.02468646	9.82853158	0.52112278	0.09319202	9.14158412	2.97689726	-2.15201724	1.62283081	-1.43758382	9.14554956	5.52311789	0.37166247	8.05590600
748	7.47000000	8.92905992	0.42368202	4.21180124	9.10565980	-0.28252897	3.39052647	5.89266024	5.57088578	1.69391458	8.38030585	1.32702953	-1.09191869	9.89206129	0.34999978	0.13872100	9.41572494	2.43193982	-2.17341322	2.02265597	-1.11122444	9.34204199	6.26349666	0.18618764	7.62847179
749	7.48000000	8.92736006	0.49752537	4.17373629	9.06875647	-0.28538613	3.38460626	6.00509385	5.98552126	1.79763400	8.42116006	0.72993000	-1.18120720	9.95257636	0.11653614	0.15960489	9.56100963	1.87348154	-2.16327818	2.64999196	-1.20780387	9.57675274	5.88253548	-0.04415329	7.79992286
750	7.49000000	8.92133835	0.57035255	4.13784835	9.09703288	-0.32462017	3.30389885	6.13497607	6.40609122	1.84359224	8.56802507	0.29733795	-1.25467981	9.93789358	-0.26487506	0.19855934	9.60477034	1.42593780	-2.18413089	3.50025881	-1.20246752	9.73541688	5.70879712	0.22322747	8.10730698
751	7.50000000	8.97108955	0.59758234	4.21550759	9.11572880	-0.35185036	3.29330886	6.35706233	6.50984682	1.80576180	8.63474193	0.06146758	-1.19318422	9.80437805	-0.34723732	0.38976727	9.69617731	1.17095322	-2.15694033	4.23560357	-0.92708197	9.76327530	5.63865717	0.04509782	8.02590410
752	7.51000000	8.97053664	0.65602260	4.22893884	9.15948047	-0.41740772	3.37291364	6.80511279	6.12935831	1.73031541	8.57385035	-0.25933890	-0.98508832	9.76764738	-0.11080591	0.60966052	9.85765703	1.06512357	-2.13189318	4.74086867	-0.76224436	9.53326815	5.96429275	-0.13676285	7.82854415
753	7.52000000	8.97717485	0.67259029	4.25236149	9.17064822	-0.48560717	3.32980002	7.46858859	5.59778942	1.62304108	8.55031583	-0.52578459	-0.72274006	9.84144007	0.03812828	0.66746243	9.93603172	1.14307522	-2.11995150	5.57752536	-0.29675872	9.43210664	5.66924545	0.04019483	8.01055844
754	7.53000000	8.94877306	0.70117982	4.24628548	9.19305802	-0.54895385	3.34876274	8.10346823	5.46267218	1.48699210	8.58058000	-0.43974279	-0.52988963	9.86972404	0.03802882	0.48521646	9.82905292	1.38498840	-2.04921317	6.38585818	0.19194776	9.31718408	6.10228822	-0.13922197	7.76264457
755	7.54000000	8.86325666	0.75334563	4.24139033	9.12855601	-0.57068057	3.37256834	8.33787552	5.43016362	1.38276832	8.37588138	-0.31680646	-0.46151901	9.92989778	-0.10569896	0.53582148	9.62562674	1.70715652	-1.99100034	6.82635432	0.16031111	8.90133970	6.06352303	-0.18860822	7.69744764
756	7.55000000	8.85771926	0.80127469	4.17456903	9.06666791	-0.62340935	3.32349041	8.20207979	5.28074869	1.55864130	8.17307772	-0.38731916	-0.45988426	9.86057183	-0.39800402	0.51900176	9.47239392	2.01530615	-1.96381558	7.30670305	0.34699028	8.82995130	5.84819945	-0.17807563	7.91977887
757	7.56000000	8.79423900	0.87447688	4.11441751	8.94573298	-0.61064550	3.17624430	8.09984222	4.80967384	1.61862384	8.06917067	-0.55658676	-0.65015957	9.85240603	-0.49860609	0.49516977	9.34060325	2.21976955	-1.89430805	8.53500411	0.69822627	9.44598584	5.76141767	0.05243293	8.05561030
758	7.57000000	8.81640067	0.97700647	4.07976960	8.86058857	-0.55465440	3.09775386	8.33317502	4.15169831	1.30617209	8.10011367	-0.83270309	-0.91691238	9.82221484	-0.39084634	0.50208390	9.33121539	2.26854279	-1.82977256	10.02965532	0.18247915	9.65832012	5.59234434	0.00038460	7.98445491
759	7.58000000	8.85047450	1.08133655	3.98648367	8.79231893	-0.55857536	3.08297628	8.96390934	3.54517276	1.44947205	8.39851804	-1.20454054	-1.23688952	9.79453799	-0.19044341	0.52539975	9.28791828	2.23979551	-1.73346925	10.71874731	-0.67355394	9.18397657	6.18799423	-0.02383977	7.62074567
760	7.59000000	8.93945539	1.12306250	3.95598757	8.73966744	-0.54092539	3.05326329	9.73769870	2.71776918	1.86256610	8.88671883	-1.71551654	-1.45037970	9.80621445	-0.21048316	0.43809442	9.35924703	2.12474406	-1.68429978	10.96076570	-0.72428012	8.71186821	5.89341681	-0.17656946	7.74891154
761	7.60000000	9.05866354	1.18010423	3.94999816	8.80801947	-0.50774829	3.10417894	10.35324559	1.85888852	2.00704067	9.41305070	-2.12821495	-1.50771656	9.86928917	-0.33464428	0.51758139	9.47638638	2.00844573	-1.66714186	10.70784980	-0.54612586	8.04022312	5.72052755	0.09348721	8.00128905
762	7.61000000	9.17157648	1.21075596	3.91996498	8.83987450	-0.49491909	3.07890366	10.66855001	1.37876970	2.15666608	9.84826137	-2.27388125	-1.60978798	9.83461077	-0.26232369	0.70773796	9.55941850	1.96500881	-1.66080312	10.65412087	-0.09789650	7.70676225	5.49290262	0.08188639	8.06835579
763	7.62000000	9.20907866	1.22764781	3.95524706	8.90810525	-0.46720914	3.10537966	10.46407557	1.14137307	2.21998235	10.23414821	-2.51561137	-1.88273129	9.71541272	0.14107049	0.74893900	9.65732534	1.94499852	-1.60511137	11.54426355	0.41086518	7.71465092	5.84633952	0.00525027	7.86381107
764	7.63000000	9.22011399	1.22474570	3.94588549	8.90628011	-0.47956705	3.11223603	9.99605459	0.95911381	2.08731994	10.33397083	-3.07906480	-2.09302539	9.74627256	0.46994172	0.76077753	9.67096752	1.95286494	-1.53259063	12.72744281	0.55523930	7.41647673	5.55188815	0.00662084	7.98651269
765	7.64000000	9.28189481	1.29207917	3.90944085	8.84430706	-0.50685267	3.06310596	9.67212525	0.74113325	1.89391632	10.29442362	-3.66578902	-2.33314541	9.84405173	0.55198084	0.68791301	9.61688252	1.96160988	-1.51404909	13.47643867	0.22314878	6.62706222	5.92477228	-0.10151866	7.78626253
766	7.65000000	9.35117174	1.34885852	3.91892654	8.73699736	-0.55907300	3.06638869	9.59510561	0.41791675	1.76901170	10.07830591	-4.40244333	-2.65313128	9.86089037	0.42883609	0.66201709	9.49819047	1.98521600	-1.47714874	13.40013334	-0.12307359	5.87185702	5.82460589	-0.12169156	7.80552684
767	7.66000000	9.36105532	1.36501693	3.96845659	8.64729055	-0.56717752	3.09075065	9.82120142	0.06563483	1.95328213	9.56930508	-5.09001841	-2.74571390	9.84960320	0.15512214	0.70353340	9.45239071	2.05525684	-1.51176959	13.34790735	0.03686086	4.73393350	5.91637886	-0.09564946	7.83475053
768	7.67000000	9.29180741	1.44767655	3.95923938	8.60816060	-0.57570414	3.10924285	10.21212563	-0.32401356	1.97023230	9.00374933	-5.49906163	-2.70725875	9.83193185	0.03957949	0.72756254	9.46487412	2.07277924	-1.54743665	12.44728001	0.70151739	3.90714377	5.61133402	-0.01774015	7.99370849
769	7.68000000	9.21107461	1.48602563	3.82864230	8.63656110	-0.59163865	3.09864904	10.52643929	-0.41053553	1.86714082	8.64545810	-5.71687807	-2.73031207	9.75868602	0.00966614	0.64390098	9.46530271	2.10941495	-1.70469612	11.81555672	1.65375278	3.11356590	5.62888170	0.00744546	7.98206357
770	7.69000000	9.27079290	1.44079328	3.83026950	8.70997636	-0.53449575	3.09227801	10.22656425	-0.35925217	2.22492232	8.43656800	-5.80315127	-2.62520333	9.79541383	0.03070588	0.49655642	9.45343481	2.08631849	-1.84654793	11.70919360	1.50126022	2.17613272	5.97576074	-0.01886776	7.74171536
771	7.70000000	9.32744750	1.40368445	3.83027780	8.78621406	-0.48038611	3.02135681	9.61224092	-0.27893021	2.69576342	8.40668167	-5.64178691	-2.52481377	9.83953974	-0.09755644	0.33415983	9.39628060	2.02207007	-1.97741685	11.36159323	1.55764278	1.03320907	5.97291388	-0.06110535	7.78673719
772	7.71000000	9.25364466	1.32668323	3.83494514	8.88084936	-0.47016974	2.96847850	8.97238793	-0.01270736	2.48988368	8.56829812	-4.92373167	-2.39291993	9.84856213	-0.40736700	0.35526499	9.26292673	1.96807872	-2.06772392	10.66955536	3.07254776	0.43078351	5.77640779	0.06839892	7.96902493
773	7.72000000	9.24809533	1.26655242	3.83706835	8.91042990	-0.46965055	2.86643139	8.03294349	0.23470441	2.52627935	9.02528717	-4.08524337	-2.07130328	9.77537384	-0.65623367	0.36719016	9.16410719	1.96172817	-2.02435347	10.75596148	2.84207935	-0.33658118	5.62209112	0.06096254	8.00266648
774	7.73000000	9.23430814	1.25401741	3.88262513	8.85035431	-0.42126477	2.80628768	7.07086034	0.35898089	2.93043286	9.59640323	-3.23882164	-1.74564189	9.74734561	-0.55497374	0.50276716	9.15208396	1.90449649	-1.89802523	11.23510763	2.61381522	-0.33906808	5.98204283	0.05540299	7.78484786
775	7.74000000	9.13191648	1.27304767	3.92125754	8.70221735	-0.52739162	2.68302122	6.80904829	0.61714254	2.56447291	9.93572205	-2.35845321	-1.46066979	9.75424643	-0.15700204	0.62926442	9.27009174	1.71374935	-1.69652216	11.64187638	3.51377418	0.13966644	5.75664408	-0.06642763	7.92583286
776	7.75000000	9.10752768	1.30356750	3.87530044	8.61248127	-0.67992500	2.61040583	7.04734677	0.98902226	1.82247398	9.90820510	-1.64518615	-1.27760457	9.80085255	0.12598598	0.70339217	9.46873040	1.62294423	-1.58737663	10.47726266	1.84571539	1.01237721	6.14110595	-0.09701863	7.66975155
777	7.76000000	9.07226050	1.35991901	3.87009256	8.58019900	-0.78252472	2.41052008	7.67787794	1.74924536	1.19154336	9.42560057	-1.21341692	-1.10215551	9.80338528	0.10524226	0.71608703	9.47003313	1.61097299	-1.56441866	5.87872156	-2.24616248	4.75569124	5.90625039	-0.17414788	7.77669173
